<svg width="53" height="53" viewBox="0 0 53 53" fill="none" xmlns="http://www.w3.org/2000/svg">
<path d="M34.7812 26.5C34.7812 28.6963 33.9088 30.8027 32.3557 32.3557C30.8027 33.9088 28.6963 34.7812 26.5 34.7812C24.3037 34.7812 22.1973 33.9088 20.6443 32.3557C19.0912 30.8027 18.2187 28.6963 18.2187 26.5C18.2206 26.027 18.2657 25.567 18.354 25.1198H15.4583V36.1532C15.4583 36.9206 16.0794 37.5417 16.8468 37.5417H36.1559C36.5237 37.5409 36.8762 37.3943 37.136 37.134C37.3958 36.8737 37.5417 36.5209 37.5417 36.1532V25.1198H34.646C34.7343 25.567 34.7794 26.027 34.7812 26.5ZM26.5 32.0208C27.2252 32.0207 27.9432 31.8776 28.6132 31.6C29.2831 31.3223 29.8917 30.9154 30.4044 30.4024C30.917 29.8895 31.3237 29.2807 31.601 28.6106C31.8784 27.9405 32.021 27.2224 32.0208 26.4972C32.0207 25.7721 31.8776 25.054 31.6 24.3841C31.3223 23.7142 30.9154 23.1055 30.4024 22.5928C29.8895 22.0802 29.2807 21.6736 28.6106 21.3962C27.9405 21.1189 27.2224 20.9762 26.4972 20.9764C25.0327 20.9768 23.6282 21.5589 22.5928 22.5948C21.5575 23.6307 20.976 25.0354 20.9764 26.5C20.9768 27.9646 21.5589 29.369 22.5948 30.4044C23.6307 31.4397 25.0354 32.0212 26.5 32.0208ZM33.125 20.7031H36.4347C36.5437 20.7035 36.6517 20.6823 36.7525 20.6409C36.8533 20.5994 36.9449 20.5385 37.0221 20.4615C37.0993 20.3846 37.1605 20.2932 37.2023 20.1925C37.2441 20.0919 37.2656 19.984 37.2656 19.875V16.5653C37.266 16.456 37.2447 16.3478 37.2031 16.2469C37.1615 16.1459 37.1003 16.0541 37.0231 15.9769C36.9458 15.8997 36.8541 15.8385 36.7531 15.7969C36.6522 15.7553 36.544 15.734 36.4347 15.7344H33.125C33.0158 15.734 32.9076 15.7553 32.8066 15.7969C32.7056 15.8385 32.6139 15.8997 32.5367 15.9769C32.4594 16.0541 32.3982 16.1459 32.3566 16.2469C32.315 16.3478 32.2937 16.456 32.2941 16.5653V19.875C32.2969 20.3305 32.6695 20.7031 33.125 20.7031ZM26.5 0C19.4718 0 12.7314 2.79196 7.76167 7.76167C2.79196 12.7314 0 19.4718 0 26.5C0 33.5282 2.79196 40.2686 7.76167 45.2383C12.7314 50.208 19.4718 53 26.5 53C29.98 53 33.426 52.3146 36.6411 50.9828C39.8562 49.6511 42.7776 47.6991 45.2383 45.2383C47.6991 42.7776 49.6511 39.8562 50.9828 36.6411C52.3146 33.426 53 29.98 53 26.5C53 23.02 52.3146 19.574 50.9828 16.3589C49.6511 13.1438 47.6991 10.2224 45.2383 7.76167C42.7776 5.30092 39.8562 3.34894 36.6411 2.01719C33.426 0.685443 29.98 0 26.5 0ZM40.3021 37.2353C40.3021 38.9219 38.9219 40.3021 37.2353 40.3021H15.7647C14.0781 40.3021 12.6979 38.9219 12.6979 37.2353V15.7647C12.6979 14.0781 14.0781 12.6979 15.7647 12.6979H37.2353C38.9219 12.6979 40.3021 14.0781 40.3021 15.7647V37.2353Z" fill="#EEF0FB"/>
</svg>
