<?xml version="1.0" encoding="UTF-8"?><svg id="Capa_1" xmlns="http://www.w3.org/2000/svg" viewBox="0 0 465.63 500"><circle cx="232.81" cy="250" r="232.81" style="fill:#ca2c4a;"/><g><path d="M416.01,250.31v13.81c-3.86,7.71-10.39,11.43-18.72,12.07-13.14,1.02-26.29,1.8-39.44,2.69-9.78,.66-19.56,1.33-30.55,2.09,1.89,.84,2.54,1.3,3.26,1.42,11.63,1.9,23.28,3.71,34.91,5.64,4.67,.77,9.42,1.4,13.94,2.74,9.86,2.93,14.68,10.42,13.49,20.15-1.25,10.21-7.98,17.37-17.98,17.6-7.58,.18-15.19-1.18-22.8-1.72-22.76-1.61-45.52-3.14-68.59-4.73,1.06,.73,1.96,1.48,2.96,2.03,8.46,4.64,17.01,9.14,25.39,13.91,4.92,2.8,9.84,5.7,14.32,9.13,6.44,4.93,8.46,13.61,5.42,20.65-2.93,6.8-9.89,10.58-18.29,8.84-6.69-1.38-13.24-3.65-19.65-6.06-9.59-3.61-18.79-8.36-28.53-11.41-13.27-4.16-26.93-7.07-40.36-10.78-1.92-.53-4.02-2.18-5.04-3.9-7.61-12.76-14.94-25.69-22.41-38.54-4.53-7.8-10.01-7.68-14.58,.27-4.81,8.37-9.72,16.68-14.37,25.14-1.51,2.75-3.15,3.62-6.2,2.73-10.41-3.05-20.85-6.03-31.34-8.83-6.92-1.85-13.86-4.31-20.92-4.81-17.42-1.23-34.92-1.44-52.38-2.22-2.67-.12-5.3-1.06-7.95-1.63,0-37.75,0-75.5,0-113.25,2.09-.34,4.18-.98,6.27-.97,11.66,.05,23.38-.41,34.96,.61,10.53,.93,18.83-2.73,26.52-9.09,2.36-1.95,4.77-3.88,6.97-6.01,34.83-33.62,73.34-62.84,111.2-92.84,1.82-1.44,4.81-2.23,7.16-2.05,10.98,.84,18.52,9.17,18.72,20.17,.19,10.36-2.91,20.07-9.21,27.87-8.82,10.91-19.05,20.68-28.52,31.08-2.84,3.12-5.67,6.46-7.55,10.19-3.63,7.2-2.98,8.21,4.45,11.03,21.68,8.2,43.09,7.12,65.24,.67,23.62-6.88,47.85-11.69,71.91-16.98,8.21-1.8,16.7-2.47,25.02,.29,8.05,2.67,12.59,8.54,12.99,17.04,.41,8.79-3.18,14.97-11.36,17.97-5.28,1.93-10.97,2.72-16.39,4.29-16.75,4.86-33.47,9.85-50.2,14.79-3.82,1.13-7.64,2.29-12.05,3.61,8,0,15.19-.05,22.38,0,21.62,.17,43.24,.21,64.85,.66,10.39,.21,18.67,4.51,23.03,14.61Zm-198.29-9.38c.05-6.77-5.1-9.96-10.19-7.27-18.68,9.87-37.25,19.95-55.79,30.06-3.72,2.03-4.74,6.07-2.93,9.48,1.82,3.42,5.59,4.49,9.49,2.39,18.35-9.84,36.7-19.68,54.92-29.75,2.15-1.19,3.51-3.8,4.5-4.92Z" style="fill:#fff;"/><path d="M190.3,320.88c6.92,12.04,13.64,23.35,19.96,34.87,3.06,5.58,6.34,11.33,7.87,17.42,3.74,14.91-7.34,30.65-22.68,33.38-15.86,2.82-31.29-7.93-33.52-23.39-.96-6.7-.15-13.13,3.28-19.1,7.64-13.28,15.24-26.58,22.87-39.86,.53-.92,1.18-1.77,2.21-3.32Z" style="fill:#fff;"/></g></svg>