<?xml version="1.0" encoding="UTF-8"?><svg id="Capa_1" xmlns="http://www.w3.org/2000/svg" viewBox="0 0 465.63 500"><circle cx="232.81" cy="250" r="232.81" style="fill:#ca2c4a;"/><g><path d="M161.21,420.81c-33.94-33.95-67.5-67.52-101.24-101.26,.28-.32,.81-.97,1.4-1.56,18.28-18.29,36.6-36.55,54.82-54.9,1.47-1.48,2.78-1.7,4.63-1.31,32.87,6.94,67-9.83,81.47-40.09,5.91-12.37,6.91-25.42,5.2-38.86-1.53-12.05-4.73-23.62-9.78-34.86,8.88-8.85,17.71-17.66,26.54-26.48,9.39-9.38,18.72-18.83,28.18-28.13,4.69-4.61,10.46-5.73,16.65-3.87,6.04,1.82,9.85,6.04,11.07,12.24,1.19,6.09-.48,11.45-4.93,15.89-14.54,14.53-29.06,29.07-43.58,43.61-.76,.76-1.55,1.53-2.15,2.41-1.6,2.38-1.27,5.26,.72,7.28,1.84,1.87,4.78,2.34,7.04,.94,1.07-.66,1.98-1.6,2.88-2.5,24.27-24.26,48.52-48.54,72.79-72.8,6.84-6.83,17.05-7.28,23.58-1.07,7.07,6.71,7.07,17.29-.06,24.43-17.44,17.47-34.9,34.91-52.35,52.36-2.92,2.92-5.86,5.82-8.76,8.76-3.12,3.16-3.36,6.39-.71,9.03,2.66,2.66,5.85,2.41,9.04-.78,26.29-26.28,52.59-52.53,78.82-78.87,4.76-4.78,10.23-6.86,16.82-5.36,6.17,1.41,10.23,5.4,11.95,11.41,1.83,6.37,.22,12.07-4.48,16.77-15.42,15.46-30.86,30.88-46.3,46.32-11.12,11.12-22.24,22.26-33.39,33.36-2.04,2.04-3.2,4.24-1.91,7.12,1.59,3.56,5.76,4.69,8.87,2.35,.86-.64,1.6-1.45,2.36-2.22,19.95-19.96,39.88-39.94,59.85-59.88,6.01-6,13.8-7.42,20.43-3.88,10.1,5.4,12.06,18.56,3.89,26.75-22.85,22.9-45.74,45.76-68.62,68.64-8.76,8.76-17.52,17.52-26.28,26.28-2.97,2.97-3.62,5.14-2.39,7.8,1.29,2.76,3.54,3.69,7.75,3.36,12.83-.99,25.7-1.69,38.5-2.98,8.53-.86,18.27,6.1,19.31,16.01,.92,8.79-6.59,18.03-16.03,19.11-11.9,1.36-23.85,2.33-35.78,3.5-15.54,1.52-31.13,2.68-46.61,4.74-14.87,1.98-27.47,9.1-38.06,19.66-23.26,23.19-46.46,46.44-69.67,69.68-.55,.55-.99,1.22-1.49,1.83Z" style="fill:#fff;"/><path d="M189.96,158.54c1.75,7.19,3.88,14.31,5.17,21.58,1.91,10.82,2.4,21.76-1.74,32.26-8.22,20.88-23.89,33.16-45.44,37.96-25.95,5.78-54.05-7.37-66.82-30.7-5.75-10.5-6.89-21.78-5.91-33.44,.43-5.16,1.04-10.3,1.66-16.25,1.03,1.57,1.67,2.49,2.25,3.45,5,8.22,11.96,14.24,20.59,18.37,3.51,1.68,6.22,1.48,8.15-.62,2.26-2.47,1.75-5.05,.52-7.91-11.87-27.6-9.85-53.94,7.56-78.72,4.24-6.04,9.51-11.15,15.88-15.97-.27,2.66-.46,4.76-.71,6.85-2.45,20.23,3.25,37.84,16.89,52.95,11.16,12.36,13.32,26.44,7.83,41.93-1.36,3.84-.72,6.34,1.94,8.09,2.49,1.64,5.33,1.16,8.2-1.59,10.34-9.91,17.74-21.68,22.21-35.3,.3-.93,.59-1.86,.89-2.79,.29-.06,.59-.11,.88-.17Z" style="fill:#fff;"/></g></svg>