<?xml version="1.0" encoding="UTF-8"?><svg id="Capa_1" xmlns="http://www.w3.org/2000/svg" viewBox="0 0 465.63 500"><circle cx="232.81" cy="250" r="232.81" style="fill:#ca2c4a;"/><g><g><path d="M227.39,326.43h0c-36.09,0-67.43-24.84-75.68-59.98l-17.84-76.04c-3.02-12.87,10.9-24.59,29.21-24.59h133.77c18.86,0,32.91,12.39,28.96,25.53l-23.99,79.74c-9.88,32.85-40.13,55.34-74.44,55.34Z" style="fill:#fff;"/><path d="M227.39,329.5c-37.7,0-70.05-25.64-78.66-62.35l-17.84-76.04c-1.33-5.68,.08-11.52,3.98-16.44,5.91-7.46,16.46-11.91,28.22-11.91h133.77c11.95,0,22.93,4.79,28.66,12.49,3.83,5.16,4.98,11.19,3.24,16.99l-23.99,79.74c-10.35,34.41-41.44,57.52-77.37,57.52Zm-64.3-160.61c-9.75,0-18.72,3.67-23.41,9.59-1.92,2.42-3.97,6.34-2.82,11.23l17.84,76.04c7.96,33.92,37.85,57.61,72.69,57.61s61.94-21.36,71.5-53.15l23.99-79.74c1.5-5-.41-9.05-2.29-11.57-4.59-6.18-13.69-10.02-23.74-10.02H163.08Z" style="fill:#cb2c4b;"/></g><g><circle cx="230.61" cy="152.01" r="59.59" style="fill:#fff;"/><path d="M230.61,214.67c-34.55,0-62.66-28.11-62.66-62.66s28.11-62.66,62.66-62.66,62.66,28.11,62.66,62.66-28.11,62.66-62.66,62.66Zm0-119.19c-31.17,0-56.53,25.36-56.53,56.53s25.36,56.53,56.53,56.53,56.53-25.36,56.53-56.53-25.36-56.53-56.53-56.53Z" style="fill:#cb2c4b;"/></g><g><circle cx="386.08" cy="310.06" r="59.59" style="fill:#fff;"/><path d="M386.07,372.72c-34.55,0-62.66-28.11-62.66-62.66s28.11-62.66,62.66-62.66,62.66,28.11,62.66,62.66-28.11,62.66-62.66,62.66Zm0-119.19c-31.17,0-56.53,25.36-56.53,56.53s25.36,56.53,56.53,56.53,56.53-25.36,56.53-56.53-25.36-56.53-56.53-56.53Z" style="fill:#cb2c4b;"/></g><g><rect x="43.56" y="310.06" width="277.48" height="59.59" rx="29.8" ry="29.8" style="fill:#fff;"/><path d="M291.24,372.72H73.36c-18.12,0-32.86-14.74-32.86-32.86s14.74-32.86,32.86-32.86h217.88c18.12,0,32.86,14.74,32.86,32.86s-14.74,32.86-32.86,32.86Zm-217.88-59.59c-14.74,0-26.73,11.99-26.73,26.73s11.99,26.73,26.73,26.73h217.88c14.74,0,26.73-11.99,26.73-26.73s-11.99-26.73-26.73-26.73H73.36Z" style="fill:#cb2c4b;"/></g><g><path d="M257.73,310.06v-7.83c0-15.07-12.22-27.29-27.29-27.29h-33.17l-14.97-58.15" style="fill:#fff;"/><path d="M260.79,310.06h-6.13v-7.83c0-13.36-10.87-24.22-24.22-24.22h-35.55l-15.56-60.46,5.94-1.53,14.38,55.85h30.79c16.74,0,30.36,13.62,30.36,30.36v7.83Z" style="fill:#cb2c4b;"/></g><g><line x1="251.1" y1="284.41" x2="272.7" y2="217.05" style="fill:#fff;"/><rect x="226.53" y="247.66" width="70.74" height="6.13" transform="translate(-56.81 423.59) rotate(-72.23)" style="fill:#cb2c4b;"/></g></g></svg>