<?xml version="1.0" encoding="UTF-8"?><svg id="Capa_1" xmlns="http://www.w3.org/2000/svg" viewBox="0 0 465.63 500"><circle cx="232.81" cy="250" r="232.81" style="fill:#ca2c4a;"/><g><g><path d="M148.18,233.93c.78-.54,1.55-1.12,1.98-2.59-8.55,2.45-17.18,4.66-25.64,7.4-17.24,5.59-34.38,11.52-51.59,17.2-7.34,2.42-11.87,7.27-12.46,14.96-.57,7.45,3.01,12.88,9.61,16.47,3.91,2.12,24.6-5.37,21.13-3.98,12.43-14.28,33.61-31.5,56.97-49.46Z" style="fill:#fff;"/><path d="M72.28,288.82c-1.21,0-2.1-.17-2.72-.5-7.23-3.93-10.75-9.98-10.18-17.5,.6-7.86,5.05-13.21,13.2-15.9,7.24-2.39,14.47-4.82,21.7-7.26,9.79-3.3,19.91-6.7,29.9-9.94,5.84-1.89,11.85-3.56,17.66-5.17,2.67-.74,5.35-1.48,8.02-2.25,.38-.11,.79,0,1.07,.28,.28,.28,.38,.69,.27,1.07-.51,1.74-1.46,2.52-2.38,3.16-20.4,15.68-42.95,33.65-56.13,48.54-.06,.64-.78,.93-1.08,1.05-.15,.06-.29,.08-.45,.08-.17,.05-.36,.11-.58,.18-8.99,2.82-14.88,4.17-18.3,4.17Zm74.95-55.52c-1.6,.45-3.2,.89-4.8,1.34-5.79,1.6-11.78,3.26-17.57,5.14-9.98,3.23-20.1,6.64-29.88,9.93-7.23,2.44-14.46,4.87-21.71,7.26-7.25,2.39-11.2,7.11-11.72,14.01-.51,6.7,2.53,11.9,9.05,15.43,.98,.52,4.78,.73,19.34-3.83,.27-.08,.52-.16,.74-.23,13.19-15.04,35.94-33.21,56.56-49.06Z" style="fill:#fff;"/></g><path d="M395.34,289.63c16.91,.02,30.77-13.2,30.9-29.48,.13-16.43-13.87-30.16-30.78-30.19-17.01-.03-30.79,13.44-30.78,30.08,.01,16.39,13.67,29.57,30.67,29.59Z" style="fill:#fff;"/><path d="M185.62,304.4c-2.03,.1-5.03,.23-8.03,.39-3.76,.2-6.25-1.54-6.61-5.23-.35-3.7,1.85-6.1,5.5-6.42,17.14-1.5,33.93-.15,49.89,6.89,4.07,1.79,5.55,4.89,4.12,8.15-1.46,3.33-4.68,4.42-8.72,2.67-11.24-4.88-23.04-6.58-36.15-6.45Z" style="fill:#fff;"/><path d="M337.03,189.35c-1.55,2.01-2.52,4.52-4.03,4.9-2.12,.54-5.29,.29-6.88-1.01-8.75-7.13-18.53-12.19-29.18-15.64-3.56-1.15-7.25-1.89-10.87-2.86-3.88-1.03-5.94-3.89-4.97-7.19,1.06-3.61,3.76-5.07,7.31-4.33,16.39,3.42,31.55,9.59,44.45,20.55,1.59,1.35,2.57,3.4,4.17,5.58Z" style="fill:#fff;"/><path d="M134.7,183.53c-.16,2.86-2.23,4.9-5.66,5.01-14.49,.48-27.6,5.21-39.98,12.43-3.16,1.85-6.16,1.3-8.3-1.77-1.94-2.8-.94-6.32,2.5-8.41,13.57-8.24,28.22-13.22,44.16-14,4.67-.23,7.36,2.12,7.28,6.73Z" style="fill:#fff;"/><path d="M188.9,311.87c7.26,1.7,14.61,3.12,21.75,5.21,4.51,1.32,6.03,4.86,4.53,8.26-1.47,3.32-4.47,3.74-8.78,2.82-7.12-1.53-14.38-2.69-21.64-3.21-5.08-.36-8.06-1.66-8.24-5.48-.18-3.65,2.41-6,7.18-6.39,1.64-.13,3.31-.02,4.96-.02,.08-.4,.16-.79,.24-1.19Z" style="fill:#fff;"/><path d="M290.62,184.43c9.6,1.97,19.16,5.73,27.03,12.94,2.57,2.36,2.74,5.38,.44,8.07-2.16,2.52-5.13,2.93-7.68,.92-6.75-5.32-14.26-8.75-22.65-10.54-3.4-.72-5.11-3.26-4.49-6.73,.63-3.5,3.09-4.95,7.34-4.67Z" style="fill:#fff;"/><path d="M123.05,196.3c5.72-.08,8.55,2.1,8.57,5.79,.02,3.45-2.68,5.06-7,6.07-6.49,1.52-12.9,3.62-19.12,6.04-4.44,1.73-7.72,1.58-9.43-1.66-1.69-3.21-.34-6.58,3.72-8.83,7.56-4.2,15.58-7,23.26-7.4Z" style="fill:#fff;"/><path d="M425.07,178.97c4.93,.09,7.77,3.23,6.58,7.04-2.36,7.55-5.03,15.05-8.28,22.25-.75,1.67-4.4,2.94-6.62,2.8-2.93-.18-4.89-3.06-3.97-5.96,2.53-7.96,5.43-15.82,8.57-23.56,.57-1.41,2.95-2.08,3.71-2.58Z" style="fill:#fff;"/><path d="M401.19,187.12c0,3.61,.06,7.22-.02,10.83-.08,3.56-1.98,5.69-5.54,5.83-3.82,.15-6.02-2.11-6.12-5.76-.21-7.36-.21-14.74,0-22.1,.1-3.61,2.18-5.95,6.05-5.83,3.88,.12,5.58,2.5,5.62,6.2,.04,3.61,0,7.22,0,10.83Z" style="fill:#fff;"/><g><path d="M259.24,268.18c-9.96,.93-24.02,2.36-38.1,3.52-13.66,1.13-27.01,.57-39.21-7.16-1.75-1.11-5.66-.36-7.77,.89-17.84,10.57-33.9,23.57-47.92,38.74-12.84,13.89-24.72,28.68-36.77,43.28-5.78,7-14.13,8.96-21.1,4.19-6.91-4.73-9.11-14.16-4.1-21.11,28.7-39.87,62.52-74.2,106.05-98.15,27.82-15.3,57.67-18.87,88.67-16.74,16.74,1.15,33.21,3.79,48.48,11.18,18.18,8.81,29.81,22.79,31.46,43.44,.39,4.96-.76,10.68-3.04,15.12-8.92,17.38-18.64,34.35-27.9,51.56-2.22,4.13-5.27,6.62-9.72,8.02-17.05,5.39-34.02,11.01-51.04,16.51-7.26,2.35-13.22-.34-15.3-6.79-2.04-6.34,1.33-12.09,8.58-14.46,14.86-4.86,29.78-9.52,44.55-14.61,2.56-.88,5.29-3.02,6.66-5.33,5.65-9.58,10.83-19.43,16.14-29.21,2.63-4.85,2.18-6.91-2.15-10.5-12.32-10.22-26.94-12.63-46.47-12.39Z" style="fill:#fff;"/><path d="M242.25,365.38c-2.34,0-4.53-.5-6.49-1.51-3.2-1.64-5.53-4.49-6.74-8.26-2.58-8.05,1.65-15.4,10.54-18.31,4.66-1.52,9.32-3.03,13.98-4.53,10.03-3.24,20.4-6.58,30.52-10.07,1.94-.67,4.05-2.35,5.02-3.99,4.42-7.5,8.64-15.32,12.72-22.88l3.37-6.23c1.93-3.55,1.83-3.98-1.41-6.67-12.02-9.97-26.39-11.92-44.35-11.68-2.8,.26-5.92,.56-9.27,.88-8.74,.84-18.65,1.79-28.75,2.63-12.71,1.05-27.54,.96-41.1-7.62-.61-.26-3.11,.07-4.56,.93-17.51,10.38-33.4,23.22-47.24,38.18-10.7,11.58-20.93,24.02-30.81,36.06l-5.84,7.1c-6.94,8.41-17.07,10.33-25.2,4.77-4.16-2.84-7.04-7.28-7.89-12.16-.82-4.7,.25-9.41,3.03-13.28,32.2-44.73,67.22-77.13,107.06-99.04,25.72-14.15,54.42-19.59,90.36-17.11,14.05,.97,32.39,3.15,49.61,11.48,20.37,9.87,31.53,25.33,33.17,45.95,.44,5.53-.82,11.79-3.37,16.76-5.64,11-11.7,22-17.55,32.63-3.48,6.32-6.96,12.63-10.37,18.98-2.59,4.82-6.24,7.83-11.5,9.5-11.21,3.54-22.57,7.25-33.57,10.83-5.81,1.9-11.63,3.79-17.45,5.67-2.05,.66-4.04,.99-5.93,.99Zm19.62-100.28c18.12,0,32.94,2.44,45.8,13.11,5.5,4.56,6.22,8.17,2.88,14.32l-3.36,6.22c-4.1,7.61-8.35,15.49-12.83,23.09-1.71,2.9-4.97,5.52-8.3,6.67-10.18,3.51-20.58,6.86-30.64,10.11-4.65,1.5-9.31,3-13.96,4.52-5.59,1.83-8.12,5.89-6.61,10.61,.71,2.21,1.95,3.78,3.7,4.67,2.07,1.06,4.74,1.11,7.74,.14,5.81-1.88,11.62-3.77,17.43-5.67,11.01-3.59,22.39-7.3,33.62-10.85,3.74-1.18,6.11-3.14,7.95-6.55,3.42-6.37,6.91-12.7,10.4-19.04,5.83-10.6,11.87-21.55,17.47-32.47,2.02-3.93,3.06-9.1,2.71-13.47-1.45-18.3-11.46-32.07-29.73-40.92-16.27-7.87-33.85-9.95-47.35-10.88-34.71-2.4-62.35,2.81-86.99,16.36-39.02,21.46-73.38,53.27-105.04,97.25-1.81,2.51-2.51,5.58-1.97,8.63,.57,3.27,2.51,6.24,5.31,8.16,5.44,3.73,12.12,2.31,17-3.61l5.83-7.09c9.94-12.1,20.22-24.62,31.05-36.32,14.24-15.4,30.6-28.62,48.61-39.3,2.56-1.52,7.82-2.83,10.97-.84,11.99,7.59,25.03,7.7,37.31,6.69,10.06-.83,19.94-1.78,28.66-2.62,3.41-.33,6.58-.63,9.41-.9h.25c.9-.02,1.79-.03,2.67-.03Z" style="fill:#fff;"/></g><g><path d="M395.34,289.63c-17-.02-30.66-13.2-30.67-29.59-.01-16.64,13.77-30.11,30.78-30.08,16.91,.03,30.91,13.76,30.78,30.19-.13,16.28-13.99,29.5-30.9,29.48Z" style="fill:#fff;"/><path d="M395.38,292.69h-.04c-18.59-.02-33.72-14.67-33.73-32.65,0-8.75,3.43-16.99,9.67-23.23,6.41-6.4,14.98-9.92,24.13-9.92h.06c9.04,.01,17.89,3.72,24.28,10.17,6.24,6.3,9.63,14.51,9.57,23.11-.14,17.94-15.36,32.52-33.92,32.52Zm.02-59.67c-7.52,0-14.54,2.89-19.79,8.13-5.08,5.08-7.88,11.78-7.87,18.89,.01,14.61,12.39,26.5,27.61,26.52h.04c15.21,0,27.67-11.85,27.79-26.44,.05-6.96-2.71-13.61-7.79-18.74-5.25-5.3-12.51-8.34-19.93-8.36h-.05Z" style="fill:#fff;"/></g></g></svg>