<?xml version="1.0" encoding="UTF-8"?><svg id="Capa_1" xmlns="http://www.w3.org/2000/svg" viewBox="0 0 465.63 500"><circle cx="232.81" cy="250" r="232.81" style="fill:#ca2c4a;"/><g><g><path d="M130.22,416.23c.16-8.63,.71-17.27,.35-25.87-.26-6.08,2.01-8.84,7.73-10.8,38.72-13.29,77.44-26.61,115.9-40.65,11.51-4.2,22.17-10.69,34.11-16.56,13.38,13.21,28.48,28,43.36,43,1.55,1.57,2.52,4.44,2.52,6.71,0,14.72-.32,29.45-.55,44.17H130.22Z" style="fill:#fff;"/><path d="M336.66,419.3H127.1l.06-3.12c.05-2.61,.13-5.22,.22-7.83,.19-5.88,.38-11.96,.14-17.86-.3-7.24,2.63-11.37,9.8-13.83,41.33-14.18,78.57-27.03,115.84-40.63,7.64-2.79,14.91-6.62,22.62-10.67,3.61-1.9,7.34-3.86,11.19-5.76l1.96-.96,10.56,10.42c11.18,11.01,22.74,22.41,34.37,34.14,2.35,2.37,3.4,6.17,3.4,8.87,0,11.12-.18,22.42-.37,33.34l-.22,13.9Zm-203.3-6.13h197.26l.13-7.87c.18-10.9,.38-22.16,.37-33.23,0-1.61-.73-3.65-1.63-4.56-11.61-11.7-23.16-23.08-34.32-34.09l-7.45-7.35c-3.1,1.56-6.14,3.16-9.09,4.71-7.89,4.15-15.35,8.08-23.37,11-37.33,13.62-74.6,26.48-115.96,40.67-4.64,1.59-5.85,3.26-5.66,7.77,.26,6.13,.06,12.32-.13,18.31-.05,1.54-.1,3.08-.14,4.62Z" style="fill:#cb2c4b;"/></g><g><path d="M231.98,264.6c-20.64,8.04-40,15.39-59.15,23.25-2.58,1.06-4.1,4.69-5.18,8.74,21.26-7.3,42.46-14.79,63.85-21.7,3.4-1.1,8.96-1.09,11.29,.95,12.96,11.37,25.22,23.52,39.83,37.4-8.15,5.81-13.45,11.61-19.98,13.94-56.88,20.29-113.95,40.04-171.04,59.74-12.67,4.37-25.2,.64-33.07-9.4-8.42-10.73-9.66-22.54-2.39-34.15,21.58-34.46,44.55-68.09,64.97-103.21,11.74-20.19,27.38-28.22,49.61-26.41,3.58,.29,7.2-.05,10.8-.06,17.56-.07,17.26,.04,22.63,16.03,1.77,5.27,5.23,10.11,8.56,14.68,2.73,3.75,6.42,6.79,9.67,10.16,2.98,3.09,5.93,6.2,9.61,10.04Z" style="fill:#fff;"/><path d="M81.16,391.78c-9.71,0-18.74-4.32-25.05-12.38-9.38-11.96-10.29-25.34-2.57-37.66,7.67-12.25,15.64-24.59,23.35-36.52,13.98-21.64,28.43-44.02,41.57-66.61,12.2-20.98,28.89-29.82,52.51-27.93,2.18,.18,4.41,.1,6.77,.02,1.26-.04,2.52-.09,3.77-.09,18.52-.11,19.72,.73,25.25,17.22l.3,.9c1.68,5,5.26,9.91,8.13,13.85,1.71,2.35,3.88,4.44,6.16,6.65,1.09,1.05,2.18,2.11,3.23,3.2,2.09,2.17,4.17,4.35,6.5,6.78l6.29,6.58-4.27,1.66c-5.02,1.95-9.95,3.86-14.83,5.75-15.32,5.93-29.8,11.54-44.27,17.48-.2,.08-.53,.29-.93,.8,3.18-1.1,6.36-2.2,9.54-3.3,15.68-5.42,31.88-11.03,47.95-16.21,3.78-1.22,10.71-1.55,14.26,1.57,9.59,8.42,18.93,17.38,28.82,26.86,3.58,3.43,7.26,6.96,11.1,10.62l2.69,2.56-3.03,2.16c-2.69,1.92-5.04,3.82-7.32,5.66-4.62,3.73-8.61,6.96-13.42,8.67-56.9,20.29-113.39,39.84-171.07,59.75-3.83,1.32-7.68,1.96-11.43,1.97Zm83.64-175.22c-18.22,0-31.03,7.91-41.05,25.13-13.21,22.72-27.71,45.15-41.72,66.85-7.7,11.91-15.65,24.23-23.3,36.45-6.43,10.26-5.69,20.57,2.2,30.63,7.2,9.18,18.28,12.32,29.66,8.39,57.67-19.9,114.14-39.44,171.01-59.73,3.83-1.36,7.44-4.28,11.62-7.67,1.42-1.15,2.97-2.4,4.64-3.68-2.91-2.77-5.72-5.47-8.48-8.12-9.83-9.44-19.12-18.35-28.61-26.68-1.1-.97-5.34-1.31-8.32-.34-16,5.17-32.18,10.77-47.83,16.17-5.32,1.84-10.64,3.68-15.97,5.51l-5.44,1.87,1.49-5.56c1.11-4.14,2.9-9.11,6.98-10.79,14.53-5.96,29.03-11.58,44.38-17.52,3.48-1.35,7-2.71,10.55-4.09-2.3-2.41-4.36-4.57-6.43-6.71-1-1.03-2.04-2.03-3.08-3.04-2.37-2.29-4.83-4.66-6.86-7.45-3.12-4.28-7.01-9.62-8.99-15.51l-.3-.9c-2.24-6.69-3.48-10.37-5.42-11.7-2.05-1.39-6.55-1.38-13.99-1.35-1.19,0-2.39,.05-3.59,.09-2.43,.09-4.94,.17-7.48-.03-1.94-.16-3.83-.24-5.66-.24Z" style="fill:#cb2c4b;"/></g><g><path d="M317.22,127.95c.34,46.79-36.98,84.65-83.74,84.93-46.91,.29-85.2-36.91-85.74-83.28-.53-46.41,38.06-85.03,85.18-85.24,45.73-.21,83.96,37.7,84.3,83.59Zm-102.64,32.69c-.19,19.35,9.86,32.06,23.31,31.79,13.16-.26,22.64-12.47,22.5-29.1-.02-2.86-.16-5.79-.77-8.57-2.38-10.83-11.86-19.56-21.31-19.9-9.14-.32-18.63,7.04-22.08,17.53-1.11,3.36-1.4,6.99-1.64,8.26Z" style="fill:#fff;"/><path d="M232.94,215.95c-48.18,0-87.72-38.6-88.27-86.31-.26-23.02,8.66-44.92,25.13-61.66,16.83-17.1,39.24-26.58,63.1-26.68,.13,0,.26,0,.38,0,46.85,0,86.65,39.59,87,86.63h0c.17,23.46-8.75,45.51-25.11,62.1-16.35,16.57-38.26,25.78-61.68,25.92-.18,0-.37,0-.55,0Zm.35-168.52h-.35c-22.22,.1-43.09,8.93-58.76,24.85-15.32,15.56-23.62,35.91-23.37,57.28,.51,44.35,37.31,80.25,82.14,80.25h.52c21.79-.13,42.15-8.69,57.35-24.1,15.21-15.42,23.5-35.93,23.34-57.75h0c-.32-43.74-37.32-80.55-80.86-80.55Zm4.17,148.07c-6.12,0-11.71-2.33-16.18-6.76-6.42-6.35-9.88-16.34-9.77-28.13l.05-.55c.05-.27,.1-.67,.17-1.16,.24-1.75,.65-4.68,1.57-7.48,3.87-11.75,14.38-20.05,25.1-19.63,10.9,.38,21.53,10.18,24.2,22.3,.7,3.18,.82,6.44,.84,9.21,.15,18.36-10.58,31.9-25.51,32.2-.16,0-.33,0-.49,0Zm-19.81-34.58c-.05,10.01,2.77,18.33,7.95,23.46,3.38,3.35,7.66,5.05,12.23,4.98,11.42-.23,19.62-11.17,19.5-26.01-.02-2.45-.12-5.31-.7-7.94-2.06-9.36-10.33-17.21-18.42-17.49-.16,0-.32,0-.48,0-7.73,0-15.65,6.55-18.58,15.43-.75,2.28-1.09,4.76-1.32,6.41-.06,.46-.12,.86-.17,1.17Z" style="fill:#cb2c4b;"/></g><g><path d="M211.26,219.47c21.16,3.94,41.48,1.94,61.35-6.3,2.5-1.04,8.09,3.1,11.13,6,18.72,17.88,37.12,36.09,57.86,53.58-2.01-4.47-2.99-9.96-6.22-13.22-14.19-14.3-29.02-27.94-44.44-42.6,19.69-7.62,38.28-2.26,47.41,12.67,23.68,38.73,47.19,77.56,70.49,116.51,9.12,15.25,6.5,30.9-5.99,40.78-11.9,9.41-30.05,7.67-42.1-4.46-46.5-46.82-93.01-93.62-139.15-140.79-5.36-5.48-8.43-13.21-12.57-19.9,.74-.76,1.49-1.52,2.23-2.28Z" style="fill:#fff;"/><path d="M385.1,396c-9.39,0-19.07-3.89-26.54-11.4l-6.44-6.49c-43.61-43.91-88.7-89.32-132.72-134.31-3.96-4.05-6.7-9.12-9.35-14.01-1.16-2.15-2.36-4.37-3.63-6.42l-1.27-2.04,5.06-5.16,1.61,.3c20.83,3.89,40.33,1.88,59.61-6.12,4.85-2,12.27,4.56,14.42,6.62,3.34,3.19,6.67,6.39,10,9.59,11.3,10.86,22.89,22,35.11,32.91-9.63-9.62-19.48-18.9-29.86-28.69-4.05-3.82-8.14-7.67-12.27-11.6l-3.51-3.34,4.51-1.75c20.93-8.1,41-2.63,51.13,13.93,24.17,39.52,47.88,78.73,70.5,116.54,9.73,16.27,7.1,33.83-6.72,44.76-5.68,4.5-12.59,6.7-19.65,6.7ZM213.29,222.94c.74,1.31,1.45,2.62,2.15,3.92,2.56,4.73,4.98,9.21,8.35,12.64,44,44.98,89.08,90.38,132.69,134.28l6.44,6.49c10.88,10.95,27.23,12.77,38.03,4.22,11.42-9.03,13.44-23.14,5.26-36.8-22.61-37.79-46.32-76.99-70.47-116.49-7.76-12.69-22.71-17.52-38.98-12.98,2.87,2.72,5.72,5.41,8.55,8.07,11.22,10.58,21.83,20.57,32.25,31.08,2.7,2.72,3.99,6.39,5.24,9.93,.52,1.49,1.02,2.9,1.6,4.19l5.55,12.31-10.32-8.71c-17.12-14.44-32.82-29.53-48.02-44.13-3.33-3.2-6.65-6.39-9.98-9.57-3.39-3.24-6.87-5.23-8.01-5.32-19.55,8.08-39.32,10.33-60.31,6.86Z" style="fill:#cb2c4b;"/></g></g></svg>