<?xml version="1.0" encoding="UTF-8"?><svg id="Capa_1" xmlns="http://www.w3.org/2000/svg" viewBox="0 0 465.63 500"><circle cx="232.81" cy="250" r="232.81" style="fill:#ca2c4a;"/><g><path d="M307.2,400.49H94.93l17.84-82.2c12-55.3,65.76-91.08,121.41-80.79h0c60.43,11.17,98.3,71.72,81.9,130.95l-8.87,32.04Z" style="fill:#fff;"/><path d="M307.2,403.56H94.93c-.93,0-1.8-.42-2.39-1.14-.58-.72-.81-1.67-.61-2.58l17.83-82.2c12.43-57.28,67.32-93.8,124.96-83.15,29.64,5.48,55.82,23.28,71.8,48.84s20.54,56.88,12.5,85.94l-8.87,32.04c-.37,1.33-1.58,2.25-2.96,2.25Zm-208.47-6.13h206.13l8.25-29.8c7.59-27.4,3.29-56.94-11.78-81.05-15.08-24.11-39.76-40.9-67.72-46.07-54.37-10.05-106.13,24.4-117.85,78.42l-17.03,78.49Z" style="fill:#cb2c4b;"/></g><path d="M310.42,167.61c-15.42,0-32.21-1.98-48.58-5.59-49.94-11.03-97.12-37.52-90.65-66.82,2.98-13.48,17.16-22.86,39.94-26.39,19.88-3.09,44.88-1.68,70.42,3.96,25.53,5.64,48.81,14.89,65.53,26.06,19.17,12.8,28.09,27.28,25.12,40.76h0c-4.35,19.69-30.16,28.03-61.78,28.03Zm-76.87-82.02c-6.99,0-13.58,.46-19.59,1.4-16.9,2.62-23.92,8.2-24.8,12.18-2.4,10.87,26.27,33.76,76.65,44.88,50.38,11.13,86.02,2.43,88.42-8.44,.88-3.98-3.14-11.99-17.37-21.49-14.87-9.93-35.93-18.24-59.29-23.39-15.41-3.4-30.48-5.14-44.03-5.14Z" style="fill:#fff;"/><g><circle cx="256.31" cy="178.69" r="79.6" style="fill:#fff;"/><path d="M256.31,261.35c-45.58,0-82.67-37.08-82.67-82.67s37.08-82.67,82.67-82.67,82.67,37.09,82.67,82.67-37.08,82.67-82.67,82.67Zm0-159.2c-42.2,0-76.54,34.33-76.54,76.54s34.33,76.54,76.54,76.54,76.54-34.33,76.54-76.54-34.33-76.54-76.54-76.54Z" style="fill:#cb2c4b;"/></g><path d="M304.36,169.93c-12.85,0-27.15-1.76-43.1-5.28-35.15-7.76-57.39-18.35-72.12-34.35l13.54-12.47c12.02,13.05,31.31,21.95,62.55,28.85,28.6,6.32,50.72,6.48,67.63,.52l6.12,17.35c-10.17,3.59-21.65,5.38-34.62,5.38Z" style="fill:#cb2c4b;"/><polygon points="238.6 198.33 229.78 190.89 218.65 193.93 223.01 183.25 216.68 173.6 228.18 174.44 235.4 165.44 238.16 176.65 248.95 180.73 239.14 186.81 238.6 198.33" style="fill:#cb2c4b;"/><polygon points="283.77 205.81 274 199.66 263.41 204.22 266.24 193.03 258.63 184.36 270.14 183.6 276.03 173.68 280.32 184.39 291.57 186.94 282.71 194.32 283.77 205.81" style="fill:#cb2c4b;"/></svg>