<?xml version="1.0" encoding="UTF-8"?><svg id="Capa_1" xmlns="http://www.w3.org/2000/svg" viewBox="0 0 465.63 500"><circle cx="232.81" cy="250" r="232.81" style="fill:#ca2c4a;"/><g><g><path d="M58.37,401.15c2.97-50.87,6.26-101.69,24.97-149.92,11.19-28.85,25.04-56.06,49.56-76.23,5.25-4.32,11.13-7.87,18.79-13.21,14.33,45.97,42.13,75.74,90.8,75.61,47.82-.13,76.16-28.42,90.12-74.48,29.91,12.17,57.91,24.5,77.52,49.27,17.04,21.52,12.24,50.99-12.03,64.32-18.39,10.1-39.19,17.63-59.82,21.44-30.04,5.56-60.84,7.35-91.4,9.58-19.09,1.39-29.75-7.11-31.54-22.2-2-16.9,7.31-28.55,27.15-31.35,30.87-4.35,61.91-7.47,92.84-11.44,5.46-.7,10.72-3,18.73-5.34-10.79-8.94-15.22-17.71-29.81-5.48-9.9,8.3-28.55,6.57-43.39,8.49-13.76,1.78-27.67,2.34-41.49,3.62-21.61,2-36.74,18.69-35.76,39.24,1.01,21,16.7,36.59,38.92,35.79,25.4-.92,50.85-3.11,76.04-6.55,15.4-2.1,21.1,1.84,20.62,17.76-.71,23.67,.38,47.4,.7,71.1H148.73V255.13c-21.46,19.29-38.18,100.67-34.76,146.02H58.37Z" style="fill:#fff;"/><path d="M343,404.21H145.67v-140.86c-18.21,25.96-31.7,96.97-28.63,137.57l.25,3.3H55.12l.19-3.25c2.77-47.43,5.91-101.18,25.17-150.85,10.13-26.12,24.05-55.76,50.47-77.49,3.6-2.96,7.43-5.53,11.87-8.51,2.2-1.48,4.56-3.06,7.11-4.84l3.44-2.4,1.25,4c15.4,49.42,44.04,73.45,87.55,73.45h.32c43.35-.12,72.69-24.44,87.2-72.3l.98-3.22,3.11,1.27c31.49,12.81,59.16,25.44,78.77,50.21,8.97,11.33,12.58,25.41,9.91,38.62-2.6,12.87-10.73,23.63-22.87,30.3-18.93,10.39-39.93,17.92-60.74,21.77-27.09,5.01-55.11,7.01-82.21,8.94l-9.52,.68c-20.06,1.46-32.76-7.62-34.81-24.9-2.27-19.1,8.59-31.76,29.77-34.75,18.3-2.58,36.94-4.76,54.97-6.87,12.43-1.46,25.29-2.96,37.9-4.58,3.3-.42,6.6-1.51,10.78-2.88,.71-.23,1.44-.48,2.2-.72-.2-.18-.39-.35-.59-.53-7.68-6.99-10.86-9.88-21.11-1.29-8.02,6.73-20.54,7.46-32.64,8.18-4.34,.26-8.45,.5-12.32,1-8.74,1.13-17.64,1.78-26.25,2.41-5.04,.37-10.25,.75-15.35,1.22-20.02,1.86-33.89,17.01-32.98,36.04,.96,20.08,15.67,33.56,35.75,32.87,25.26-.92,50.74-3.11,75.73-6.52,9.33-1.27,15.2-.31,19.03,3.14,3.77,3.4,5.34,8.87,5.07,17.75-.49,16.52-.1,33.39,.27,49.7,.16,7.09,.33,14.18,.42,21.27l.04,3.11Zm-191.2-6.13h184.98c-.1-6.03-.24-12.07-.38-18.1-.38-16.39-.77-33.34-.27-50.02,.2-6.82-.76-10.96-3.04-13.01-2.33-2.1-6.81-2.62-14.1-1.62-25.19,3.44-50.88,5.65-76.34,6.57-23.37,.86-40.99-15.43-42.1-38.7-1.06-22.06,15.51-40.3,38.54-42.44,1.16-.11,2.33-.21,3.5-.31-.15,0-.28,0-.41,0-44.73,0-75.7-24.83-92.14-73.82-1.32,.9-2.58,1.75-3.8,2.56-4.3,2.89-8.02,5.38-11.39,8.16-25.33,20.84-38.81,49.59-48.65,74.98-18.48,47.65-21.87,99.57-24.58,145.75h49.09c-2.51-47.05,14.25-125.7,35.97-145.23l5.12-4.6v149.84Zm184.89-175.5c5.73,0,10.06,3.94,14.77,8.23,1.44,1.31,2.92,2.66,4.56,4.01l4.45,3.69-5.55,1.62c-2.71,.79-5.1,1.58-7.28,2.29-4.31,1.42-8.03,2.64-11.91,3.14-12.65,1.62-25.52,3.13-37.97,4.59-18,2.1-36.61,4.28-54.83,6.85-17.66,2.49-26.38,12.42-24.53,27.95,2.09,17.67,16.52,20.37,28.27,19.51l9.53-.68c26.93-1.92,54.78-3.9,81.53-8.85,20.17-3.73,40.54-11.03,58.9-21.11,10.54-5.79,17.58-15.07,19.81-26.14,2.31-11.44-.86-23.68-8.71-33.59-18.05-22.81-43.79-35.01-73.19-47.07-13.69,42.33-38.93,66.54-75.18,72.17,7-.53,14.14-1.12,21.1-2.02,4.09-.53,8.49-.79,12.75-1.04,11.11-.66,22.6-1.34,29.06-6.76,5.85-4.91,10.46-6.78,14.41-6.78Z" style="fill:#cb2c4b;"/></g><g><path d="M163.46,147.17c.01-44.13,35.37-78.94,79.84-78.61,44.02,.33,78.61,35.77,78.36,80.29-.24,42.88-35.67,77.68-79.14,77.72-44.37,.04-79.08-34.81-79.06-79.4Zm80.68,33.51c-20.23,.25-35.05,8.64-32.8,18.36,3.61,15.63,17.84,16.26,30.21,17.15,17.6,1.27,34.68-8.69,32.23-18.42-4.11-16.31-18.9-15.77-29.63-17.09Z" style="fill:#fff;"/><path d="M242.45,229.64c-22.18,0-42.82-8.42-58.14-23.73-15.43-15.42-23.93-36.28-23.92-58.74h0c0-22.05,8.51-42.63,23.94-57.94,15.59-15.47,36.59-23.94,58.99-23.73,45.9,.34,81.66,36.97,81.41,83.37-.25,44.49-37.12,80.73-82.2,80.77h-.08Zm-78.99-82.47h3.07c0,20.82,7.85,40.14,22.12,54.4,14.15,14.15,33.26,21.93,53.8,21.94h.07c41.72-.04,75.85-33.54,76.07-74.67,.24-42.98-32.85-76.89-75.32-77.21-.2,0-.41,0-.61,0-20.57,0-39.73,7.78-54.01,21.95-14.26,14.15-22.12,33.18-22.13,53.59h-3.07Zm81.15,72.19c-1.1,0-2.2-.04-3.3-.12l-.9-.07c-12.49-.89-28.04-2-32.07-19.45-.84-3.63,.05-7.25,2.58-10.47,5.5-7,18.21-11.46,33.17-11.65h.21s.21,.02,.21,.02c1.18,.15,2.42,.27,3.68,.39,10.29,1.03,24.38,2.43,28.55,18.99,.94,3.74-.12,7.58-3.08,11.11-5.73,6.83-17.34,11.23-29.05,11.23Zm-.64-35.61c-14.62,.22-24.7,4.82-28.22,9.3-1.38,1.76-1.85,3.49-1.43,5.3,3.01,13.04,14.44,13.85,26.53,14.72l.91,.06c12.07,.88,23.02-3.95,27.2-8.94,1.66-1.98,2.28-3.89,1.84-5.67-3.12-12.39-13.33-13.4-23.21-14.39-1.24-.12-2.45-.25-3.61-.38Z" style="fill:#cb2c4b;"/></g></g></svg>