<svg width="52" height="53" viewBox="0 0 52 53" fill="none" xmlns="http://www.w3.org/2000/svg">
<path d="M26 0C11.6404 0 0 11.8643 0 26.5C0 41.1357 11.6404 53 26 53C40.3596 53 52 41.1357 52 26.5C52 11.8643 40.3596 0 26 0ZM36.576 21.7079C36.5851 21.9343 36.5896 22.1588 36.5896 22.3815C36.5896 29.2825 31.441 37.2353 22.0215 37.2353C19.2382 37.2392 16.5129 36.4245 14.1727 34.8889C14.5717 34.9368 14.9789 34.9598 15.3942 34.9579C17.7937 34.9579 20.001 34.127 21.7533 32.7247C20.6855 32.7034 19.6508 32.343 18.7934 31.6938C17.9361 31.0446 17.2988 30.1389 16.9704 29.1031C17.7373 29.2517 18.5273 29.2205 19.2806 29.012C18.1211 28.7741 17.0782 28.1342 16.3292 27.2012C15.5802 26.2682 15.1713 25.0997 15.1721 23.8942V23.8307C15.8627 24.2199 16.6535 24.4573 17.4931 24.4849C16.4065 23.7477 15.6373 22.6152 15.3428 21.3191C15.0483 20.0229 15.2508 18.6611 15.9087 17.5121C17.1955 19.1236 18.7998 20.4421 20.6178 21.3821C22.4359 22.3222 24.4272 22.8629 26.4631 22.9694C26.2043 21.8495 26.3157 20.6739 26.78 19.6252C27.2444 18.5765 28.0356 17.7136 29.0308 17.1705C30.026 16.6275 31.1693 16.4348 32.283 16.6223C33.3968 16.8099 34.4185 17.3672 35.1894 18.2077C36.3354 17.9764 37.4345 17.548 38.4394 16.9407C38.0574 18.1501 37.2577 19.1771 36.1888 19.8308C37.204 19.7062 38.1953 19.428 39.13 19.0055C38.445 20.0554 37.5798 20.9709 36.576 21.7079Z" fill="#EEF0FB"/>
</svg>
