<svg width="416" height="401" viewBox="0 0 416 401" fill="none" xmlns="http://www.w3.org/2000/svg">
<g clip-path="url(#clip0_125_4)">
<rect x="7" y="9" width="396" height="379" rx="189.5" fill="#66142D"/>
<path d="M374.155 172.079C372.188 162.68 370.827 153.758 368.02 145.175C352.084 96.37 320.707 61.5589 273.705 40.8716C247.64 29.4008 220.24 25.0137 192.034 26.9471C152.459 29.6696 117.061 43.6201 86.2554 68.8939C70.5104 81.8126 58.6214 97.8179 48.6042 115.349C42.3652 126.274 37.4085 137.823 33.8904 149.857C18.9686 200.855 26.0395 248.932 54.8347 293.419C79.8863 332.123 115.163 356.998 160.145 367.706C165.726 369.033 171.445 369.822 177.121 370.706C178.698 370.957 180.336 371.365 180.769 368.538C184.096 346.655 193.767 327.875 208.871 311.774C221.531 298.275 236.479 287.758 252.085 278.082C273.827 264.608 293.099 248.256 310.048 229.094C315.412 223.025 321.313 217.468 329.502 215.283C338.8 212.803 346.269 218.595 346.399 228.219C346.451 231.921 345.524 235.337 344.146 238.692C339.675 249.574 332.284 258.417 324.268 266.767C312.093 279.443 299.364 291.555 285.993 304.196C292.891 304.413 298.722 303.139 304.39 300.867C333.54 289.205 352.318 267.963 362.716 238.588C368.86 221.231 372.378 203.075 379.155 185.943C382.881 176.501 387.196 167.284 395.012 160.348C400.385 155.579 406.173 155.146 411.156 158.805C414.432 161.215 416.321 164.501 415.939 168.455C412.542 203.985 409.085 239.551 397.127 273.504C386.884 302.584 370.186 327.563 347.509 348.519C318.748 375.085 284.762 390.838 246.435 397.61C227.597 400.939 208.516 401.78 189.547 400.22C103.604 393.136 33.2578 338.383 8.30145 255.773C1.1005 231.886 -1.49912 207.384 0.831877 182.717C6.60303 121.809 34.1763 72.9169 84.0804 37.152C110.787 18.0168 140.787 6.80609 173.221 2.29755C232.987 -6.00857 286.695 8.04594 333.297 46.9408C363.791 72.388 383.782 104.745 395.004 142.713C395.879 145.66 396.278 147.499 392.534 148.868C388.548 150.325 386.182 154.183 383.574 157.435C380.065 161.813 376.997 166.486 374.146 172.07L374.155 172.079Z" fill="white"/>
<path d="M203.134 119.632C207.857 110.737 213.845 103.514 221.002 97.2543C247.388 74.1741 286.478 72.1192 313.445 93.3267C335.966 111.04 344.788 134.771 342.309 163.356C341.157 176.717 337.578 189.038 331.98 201.003C331.027 203.04 329.883 204.315 327.405 204.922C321.53 206.335 316.391 209.361 311.92 213.497C300.265 224.265 290.074 236.508 277.96 246.834C264.832 258.027 250.153 266.923 235.829 276.356C218.186 287.974 202.831 302.011 190.327 319.075C188.854 321.086 188.013 321.173 186.02 319.725C154.123 296.523 123.577 271.839 98.7335 240.817C83.4651 221.751 69.8604 201.705 64.5052 177.411C57.9455 147.663 63.5346 120.915 85.9954 99.0317C113.794 71.9458 154.322 73.5151 182.563 94.87C186.835 98.104 190.708 101.737 194.096 105.916C197.441 110.043 200.171 114.578 203.134 119.632ZM159.738 226.884V226.901C165.656 226.901 171.575 227.048 177.485 226.84C180.405 226.736 181.107 227.785 181.072 230.551C180.934 241.519 180.968 252.495 181.046 263.463C181.081 269.186 183.888 271.934 189.547 271.96C198.351 271.995 207.146 271.978 215.95 271.96C222.276 271.96 224.815 269.437 224.841 263.021C224.884 252.626 225.006 242.23 224.78 231.843C224.702 228.106 225.456 226.667 229.633 226.788C240.881 227.118 252.137 226.918 263.393 226.901C268.801 226.892 270.88 224.985 270.915 219.774C270.984 209.673 270.984 199.564 270.906 189.463C270.863 184.113 268.61 181.989 263.194 181.972C252.085 181.946 240.967 181.711 229.867 182.084C225.491 182.232 224.685 180.827 224.789 176.821C225.066 166.287 224.945 155.744 224.867 145.21C224.824 139.227 222.328 136.869 216.366 136.86C207.424 136.851 198.472 136.86 189.53 136.86C183.221 136.86 181.037 139.028 181.02 145.504C180.986 156.334 180.89 167.163 181.107 177.983C181.167 181.243 180.232 182.084 177.025 182.032C165.63 181.841 154.227 181.928 142.832 181.989C137.546 182.015 135.076 184.408 135.033 189.601C134.955 199.702 134.946 209.812 135.033 219.913C135.068 224.482 137.477 226.823 141.991 226.875C147.91 226.944 153.819 226.892 159.738 226.892V226.884Z" fill="#C92B49"/>
<path d="M159.738 226.884C153.819 226.884 147.91 226.936 141.991 226.866C137.476 226.814 135.068 224.473 135.033 219.904C134.955 209.803 134.955 199.694 135.033 189.593C135.076 184.399 137.546 182.006 142.832 181.98C154.227 181.92 165.63 181.833 177.025 182.024C180.232 182.076 181.176 181.243 181.107 177.975C180.89 167.154 180.985 156.325 181.02 145.496C181.037 139.028 183.221 136.86 189.53 136.851C198.472 136.851 207.424 136.834 216.366 136.851C222.319 136.851 224.815 139.218 224.867 145.201C224.945 155.735 225.066 166.278 224.789 176.813C224.685 180.818 225.491 182.223 229.867 182.076C240.967 181.703 252.085 181.937 263.194 181.963C268.61 181.98 270.863 184.096 270.906 189.454C270.984 199.555 270.984 209.664 270.915 219.765C270.88 224.976 268.801 226.884 263.393 226.892C252.137 226.91 240.881 227.118 229.633 226.779C225.465 226.658 224.702 228.097 224.78 231.834C224.997 242.221 224.876 252.617 224.841 263.013C224.815 269.429 222.276 271.943 215.95 271.952C207.146 271.96 198.351 271.978 189.547 271.952C183.888 271.926 181.081 269.177 181.046 263.455C180.977 252.487 180.942 241.51 181.072 230.542C181.107 227.785 180.405 226.727 177.485 226.832C171.575 227.04 165.656 226.892 159.738 226.892V226.875V226.884Z" fill="#F2F2EE"/>
</g>
<defs>
<clipPath id="clip0_125_4">
<rect width="415.987" height="400.978" fill="white" transform="translate(0.000976562 -0.000854492)"/>
</clipPath>
</defs>
</svg>
